<?xml version="1.0" encoding="UTF-8" standalone="no"?>
<!-- Created with Inkscape (http://www.inkscape.org/) -->

<svg
   xmlns:dc="http://purl.org/dc/elements/1.1/"
   xmlns:cc="http://creativecommons.org/ns#"
   xmlns:rdf="http://www.w3.org/1999/02/22-rdf-syntax-ns#"
   xmlns:svg="http://www.w3.org/2000/svg"
   xmlns="http://www.w3.org/2000/svg"
   xmlns:xlink="http://www.w3.org/1999/xlink"
   xmlns:sodipodi="http://sodipodi.sourceforge.net/DTD/sodipodi-0.dtd"
   xmlns:inkscape="http://www.inkscape.org/namespaces/inkscape"
   width="512"
   height="512"
   id="svg2"
   sodipodi:version="0.32"
   inkscape:version="0.92.3 (2405546, 2018-03-11)"
   version="1.0"
   sodipodi:docname="gnusim8085.svg"
   inkscape:output_extension="org.inkscape.output.svg.inkscape"
   inkscape:export-filename="/projects/design/gnusim8085/workspace/renders/logo-gnusim.png"
   inkscape:export-xdpi="90"
   inkscape:export-ydpi="90">
  <title
     id="title2843">GNUSim8085 Logo</title>
  <defs
     id="defs4" />
  <sodipodi:namedview
     id="base"
     pagecolor="#ffffff"
     bordercolor="#666666"
     borderopacity="1.0"
     inkscape:pageopacity="0.0"
     inkscape:pageshadow="2"
     inkscape:zoom="4.0119534"
     inkscape:cx="53.072959"
     inkscape:cy="24.102364"
     inkscape:document-units="px"
     inkscape:current-layer="layer1"
     showgrid="false"
     inkscape:showpageshadow="false"
     inkscape:window-width="1299"
     inkscape:window-height="713"
     inkscape:window-x="67"
     inkscape:window-y="27"
     inkscape:snap-global="false"
     showguides="true"
     inkscape:guide-bbox="true"
     inkscape:window-maximized="1">
    <inkscape:grid
       type="xygrid"
       id="grid3644"
       empspacing="5"
       visible="true"
       enabled="true"
       snapvisiblegridlinesonly="true" />
  </sodipodi:namedview>
  <metadata
     id="metadata7">
    <rdf:RDF>
      <cc:Work
         rdf:about="">
        <dc:format>image/svg+xml</dc:format>
        <dc:type
           rdf:resource="http://purl.org/dc/dcmitype/StillImage" />
        <dc:title>GNUSim8085 Logo</dc:title>
        <dc:date>Feb 04, 2010</dc:date>
        <dc:creator>
          <cc:Agent>
            <dc:title>Kamaleshwar Morjal</dc:title>
          </cc:Agent>
        </dc:creator>
        <dc:rights>
          <cc:Agent>
            <dc:title>CC-BY</dc:title>
          </cc:Agent>
        </dc:rights>
        <dc:publisher>
          <cc:Agent>
            <dc:title />
          </cc:Agent>
        </dc:publisher>
        <dc:subject>
          <rdf:Bag>
            <rdf:li>GNUSim8085</rdf:li>
          </rdf:Bag>
        </dc:subject>
        <cc:license
           rdf:resource="http://creativecommons.org/licenses/by/3.0/" />
      </cc:Work>
      <cc:License
         rdf:about="http://creativecommons.org/licenses/by/3.0/">
        <cc:permits
           rdf:resource="http://creativecommons.org/ns#Reproduction" />
        <cc:permits
           rdf:resource="http://creativecommons.org/ns#Distribution" />
        <cc:requires
           rdf:resource="http://creativecommons.org/ns#Notice" />
        <cc:requires
           rdf:resource="http://creativecommons.org/ns#Attribution" />
        <cc:permits
           rdf:resource="http://creativecommons.org/ns#DerivativeWorks" />
      </cc:License>
    </rdf:RDF>
  </metadata>
  <g
     inkscape:label="Layer 1"
     inkscape:groupmode="layer"
     id="layer1"
     transform="translate(0,-18.6622)">
    <rect
       style="color:#000000;display:inline;overflow:visible;visibility:visible;fill:#005700;fill-opacity:1;fill-rule:nonzero;stroke:none;stroke-width:32.00001144;marker:none;enable-background:accumulate"
       id="green_base"
       width="512"
       height="512"
       x="0"
       y="18.66214"
       rx="13.65334"
       ry="13.653338" />
    <path
       style="color:#000000;display:inline;overflow:visible;visibility:visible;fill-opacity:1;stroke:none;stroke-width:59.54132843;marker:none;enable-background:accumulate"
       d="M 103.65332,66.23578 68.000018,101.88974 V 406.5829 l 35.653302,35.65338 H 408.34674 L 444.00012,406.5829 V 101.88974 L 408.34674,66.23578 Z"
       id="black_base"
       inkscape:connector-curvature="0" />
    <use
       x="0"
       y="0"
       xlink:href="#black_base"
       id="use6043"
       style="fill:#000000;fill-opacity:1"
       transform="matrix(1.1347518,0,0,1.1347518,-25.738524,-13.832039)"
       width="600"
       height="600" />
    <use
       style="fill:#3d3d3d;fill-opacity:1"
       id="use6041"
       xlink:href="#black_base"
       y="0"
       x="0"
       transform="matrix(1.1347518,0,0,1.1347518,-30.89207,-13.832039)"
       width="600"
       height="600" />
    <use
       height="600"
       width="600"
       x="0"
       y="0"
       xlink:href="#black_base"
       id="use6039"
       style="fill:#131313;fill-opacity:1"
       transform="matrix(1.1256738,0,0,1.1256738,-25.612472,-11.477028)" />
    <path
       style="color:#000000;display:inline;overflow:visible;visibility:visible;fill:#ffcc00;fill-opacity:1;fill-rule:nonzero;stroke:none;stroke-width:32.00001144;marker:none;enable-background:accumulate"
       d="m 406.17866,112.68856 c -4.26294,0 -7.73142,3.46884 -7.73142,7.73138 0,2.73322 1.42648,5.10782 3.56832,6.47976 v 77.25168 h -59.62862 v 7.85616 h 63.5726 3.91258 v -3.91224 -80.91324 c 2.37796,-1.3153 4.03788,-3.8517 4.03788,-6.76212 0,-4.26254 -3.46856,-7.73138 -7.73134,-7.73138 z M 286.01368,177.6706 c -2.77804,0 -4.97682,2.26118 -4.97682,5.03892 v 40.44154 c -0.014,0.1674 0,0.32832 0,0.50248 v 10.26656 c 0,0.1704 -0.014,0.33498 0,0.50152 v 10.36058 h 24.97828 c 1.33136,-1.66998 3.3369,-2.75404 5.63418,-2.75404 4.00386,0 7.26184,3.22694 7.26184,7.23044 0,4.00358 -3.25798,7.26202 -7.26184,7.26202 -2.50244,0 -4.6725,-1.26848 -5.9785,-3.19286 h -24.63396 v 21.5355 c 0,2.77708 2.23014,5.00752 5.00814,5.00752 h 51.20862 c 2.77802,0 5.00816,-2.23044 5.00816,-5.00752 v -40.94278 -10.26646 -11.2996 h -24.63396 c -1.30598,1.92458 -3.50734,3.19268 -6.00978,3.19268 -4.00386,0 -7.23056,-3.22656 -7.23056,-7.23092 0,-4.0033 3.2267,-7.26154 7.23056,-7.26154 2.29734,0 4.30282,1.08404 5.6342,2.75434 h 25.00954 V 182.712 c 0,-2.77718 -2.26142,-5.03892 -5.03948,-5.03892 z m -75.7486,55.80964 c -2.77802,0 -5.00818,2.22958 -5.00818,5.00732 v 51.20952 c 0,2.77822 2.23016,5.00742 5.00818,5.00742 H 261.505 c 2.77808,0 5.00814,-2.2292 5.00814,-5.00742 v -51.20952 c 0,-2.77774 -2.23006,-5.00732 -5.00814,-5.00732 z m 25.60428,23.38164 c 4.00386,0 7.26192,3.25816 7.26192,7.26184 0,4.00378 -3.25806,7.23044 -7.26192,7.23044 -4.00386,0 -7.23052,-3.22666 -7.23052,-7.23044 0,-4.00368 3.22668,-7.26184 7.23052,-7.26184 z m 36.62228,37.84262 c -2.77804,0 -5.0081,2.23044 -5.0081,5.00866 v 51.2397 c 0,2.77822 2.23006,5.00884 5.0081,5.00884 h 51.2399 c 2.77802,0 5.0082,-2.23062 5.0082,-5.00884 v -51.2397 c 0,-2.77822 -2.23018,-5.00866 -5.0082,-5.00866 z m -74.96607,15.33784 c -2.77799,0 -5.00821,2.23062 -5.00821,5.00874 v 51.2081 c 0,2.77822 2.23022,5.03912 5.00821,5.03912 h 51.23989 c 2.77808,0 5.00816,-2.2609 5.00816,-5.03912 v -51.2081 c 0,-2.77812 -2.23008,-5.00874 -5.00816,-5.00874 z m 100.57043,8.0442 c 4.00386,0 7.26182,3.25852 7.26182,7.26232 0,4.00368 -3.25796,7.23024 -7.26182,7.23024 -4.00388,0 -7.23056,-3.22656 -7.23056,-7.23024 0,-4.0038 3.22668,-7.26232 7.23056,-7.26232 z m -175.56782,4.8207 c -2.77806,0 -5.00821,2.26098 -5.00821,5.0394 v 51.20924 c 0,2.77708 2.23015,5.0076 5.00821,5.0076 h 51.20863 c 2.77805,0 5.03938,-2.23052 5.03938,-5.0076 v -51.20924 c 0,-2.77842 -2.26133,-5.0394 -5.03938,-5.0394 z m 100.60164,10.51712 c 4.00386,0 7.2619,3.25796 7.2619,7.26222 0,4.00332 -3.25804,7.23054 -7.2619,7.23054 -4.00386,0 -7.23046,-3.22722 -7.23046,-7.23054 0,-4.00426 3.2266,-7.26222 7.23046,-7.26222 z m -74.99738,12.86492 c 4.00387,0 7.26185,3.25804 7.26185,7.26192 0,4.0036 -3.25798,7.23016 -7.26185,7.23016 -4.00386,0 -7.23042,-3.22656 -7.23042,-7.23016 0,-4.00388 3.22656,-7.26192 7.23042,-7.26192 z m 36.12139,37.8742 c -2.53468,0.25316 -4.5072,2.40402 -4.5072,5.00856 v 51.2083 c 0,2.77812 2.23007,5.0078 5.00821,5.0078 h 51.2085 c 2.778,0 5.03944,-2.22968 5.03944,-5.0078 v -51.2083 c 0,-2.7783 -2.26144,-5.00856 -5.03944,-5.00856 h -51.2085 c -0.17334,0 -0.33133,-0.02 -0.50121,0 z m 26.10525,23.35082 c 4.00386,0 7.26172,3.25758 7.26172,7.26184 0,4.00378 -3.25786,7.23092 -7.26172,7.23092 -4.00394,0 -7.23054,-3.22714 -7.23054,-7.23092 0,-4.00426 3.2266,-7.26184 7.23054,-7.26184 z"
       id="the_emblem"
       inkscape:connector-curvature="0" />
    <text
       xml:space="preserve"
       style="font-style:normal;font-variant:normal;font-weight:normal;font-stretch:normal;font-size:128.00007629px;line-height:0%;font-family:'Bitstream Vera Sans';-inkscape-font-specification:'Bitstream Vera Sans';text-align:start;writing-mode:lr-tb;text-anchor:start;fill:#ffffff;fill-opacity:1;stroke-width:10.66667271"
       x="82.717003"
       y="128.97604"
       id="text3075"><tspan
         sodipodi:role="line"
         id="tspan3077"
         x="82.717003"
         y="128.97604"
         style="font-size:17.40800476px;line-height:1.25;stroke-width:10.66667271">AN OPEN SOURCE INTEL 8085</tspan><tspan
         sodipodi:role="line"
         x="82.717003"
         y="168.58406"
         id="tspan3079"
         style="font-size:17.40800476px;line-height:1.25;stroke-width:10.66667271">MICROPROCESSOR SIMULATOR</tspan></text>
  </g>
</svg>
